<?xml version="1.0" encoding="UTF-8"?>
<svg width="328px" height="48px" viewBox="0 0 328 48" version="1.1" xmlns="http://www.w3.org/2000/svg" xmlns:xlink="http://www.w3.org/1999/xlink">
    <title>title_04</title>
    <g id="Page-1" stroke="none" stroke-width="1" fill="none" fill-rule="evenodd">
        <g id="3-・-Medium" transform="translate(-644, -4230)" fill="#191A1C">
            <g id="title_04" transform="translate(644.0004, 4230.0003)">
                <path d="M33.9574957,42.7307248 C30.5741207,45.8211108 26.2466328,47.3655773 20.9772156,47.3655773 C14.456503,47.3655773 9.32975824,45.2784408 5.59770936,41.1034412 C1.86493256,36.9081005 0,31.1573964 0,23.8520552 C0,15.9524649 2.12188853,9.86468059 6.36712142,5.58652285 C10.0576788,1.86193213 14.7527667,0 20.4538407,0 C28.0824485,0 33.6597761,2.49686333 37.1872793,7.48986353 C39.1344669,10.2940219 40.1804888,13.1076244 40.3238892,15.9313974 L30.8500026,15.9313974 C30.2356377,13.7628967 29.4458438,12.1254425 28.4828049,11.0204879 C26.7590889,9.05612403 24.2062714,8.07321566 20.8228965,8.07321566 C17.3783762,8.07321566 14.6610487,9.46003908 12.6723696,12.2329595 C10.6829626,15.0058798 9.68862309,18.9295222 9.68862309,24.0053395 C9.68862309,29.0804304 10.7397404,32.8813 12.8412472,35.4094014 C14.9427539,37.9367763 17.6134946,39.200827 20.8541971,39.200827 C24.1756987,39.200827 26.7081345,38.1154869 28.4515043,35.9462597 C29.4152712,34.7802819 30.214528,33.0294991 30.8500026,30.6975435 L40.2321712,30.6975435 C39.4110767,35.6295205 37.3197609,39.6403388 33.9574957,42.7307248" id="Fill-1"></path>
                <path d="M61.7940526,18.9708581 C59.2303163,18.9708581 57.2569236,19.8760346 55.8724186,21.6871142 C54.4886416,23.4981937 53.797117,26.0822329 53.797117,29.4385054 C53.797117,32.7947779 54.4886416,35.3839024 55.8724186,37.2051525 C57.2569236,39.0264025 59.2303163,39.9366643 61.7940526,39.9366643 C64.357061,39.9366643 66.3260862,39.0264025 67.6996724,37.2051525 C69.0732585,35.3839024 69.7604156,32.7947779 69.7604156,29.4385054 C69.7604156,26.0822329 69.0732585,23.4981937 67.6996724,21.6871142 C66.3260862,19.8760346 64.357061,18.9708581 61.7940526,18.9708581 M74.7124594,16.8837216 C77.5426146,20.4237899 78.9569644,24.60896 78.9569644,29.4385054 C78.9569644,34.3501414 77.5426146,38.5505673 74.7124594,42.0397831 C71.8823041,45.5297253 67.5868447,47.2732435 61.8246253,47.2732435 C56.0624059,47.2732435 51.7669465,45.5297253 48.9367912,42.0397831 C46.1066359,38.5505673 44.6922862,34.3501414 44.6922862,29.4385054 C44.6922862,24.60896 46.1066359,20.4237899 48.9367912,16.8837216 C51.7669465,13.3429267 56.0624059,11.5725293 61.8246253,11.5725293 C67.5868447,11.5725293 71.8823041,13.3429267 74.7124594,16.8837216" id="Fill-3"></path>
                <path d="M101.010775,19.1241424 C98.0372189,19.1241424 95.9968575,20.3823814 94.8904182,22.8995858 C94.3160889,24.2304713 94.0285602,25.9289486 94.0285602,27.9957441 L94.0285602,46.1072657 L85.2927852,46.1072657 L85.2927852,12.708722 L93.7519504,12.708722 L93.7519504,17.5898464 C94.8794994,15.8703016 95.9459031,14.6324037 96.9511614,13.8746998 C98.7549486,12.5241996 101.041347,11.8485863 103.810357,11.8485863 C107.274531,11.8485863 110.11051,12.7544893 112.314653,14.5662953 C114.518797,16.3773748 115.620869,19.3805849 115.620869,23.5751991 L115.620869,46.1072657 L106.639784,46.1072657 L106.639784,25.7545968 C106.639784,23.9950964 106.403938,22.6445962 105.932246,21.7030964 C105.071116,19.9842781 103.430383,19.1241424 101.010775,19.1241424" id="Fill-5"></path>
                <path d="M139.059548,39.8759317 L139.059548,46.4141249 L134.907489,46.5674092 C130.764893,46.710523 127.935465,45.9949541 126.418479,44.4185231 C125.433602,43.4160001 124.941528,41.8708071 124.941528,39.7836706 L124.941528,19.1861826 L120.266822,19.1861826 L120.266822,12.9538316 L124.941528,12.9538316 L124.941528,3.62237697 L133.61543,3.62237697 L133.61543,12.9538316 L139.059548,12.9538316 L139.059548,19.1861826 L133.61543,19.1861826 L133.61543,36.8669099 C133.61543,38.2384776 133.789403,39.0928015 134.138077,39.4306081 C134.486751,39.7684148 135.553882,39.9369549 137.337288,39.9369549 C137.603707,39.9369549 137.88614,39.9318696 138.183132,39.9209726 C138.480123,39.9115286 138.772019,39.8962728 139.059548,39.8759317" id="Fill-7"></path>
                <path d="M152.470611,39.7836706 C153.290978,40.4592839 154.295508,40.7970905 155.485658,40.7970905 C157.370973,40.7970905 159.109247,40.2442499 160.699026,39.1385688 C162.287348,38.0336142 163.11281,36.0176713 163.174684,33.0914666 L163.174684,29.8376258 C162.620736,30.185603 162.062421,30.4667453 161.498283,30.6817792 C160.934144,30.8968131 160.160364,31.0958647 159.176216,31.2803871 L157.207919,31.6487053 C155.361912,31.9763414 154.03928,32.3751712 153.240023,32.8459211 C151.886091,33.6443072 151.209853,34.8822051 151.209853,36.5603413 C151.209853,38.0539552 151.629863,39.1291248 152.470611,39.7836706 M145.949899,16.269422 C148.26687,13.3221498 152.244228,11.8488769 157.884157,11.8488769 C161.554332,11.8488769 164.814689,12.5760693 167.665226,14.0282747 C170.515763,15.4819329 171.941031,18.2236153 171.941031,22.2555011 L171.941031,37.6042728 C171.941031,38.6685454 171.960685,39.9572959 172.002177,41.4719773 C172.06405,42.6176141 172.238023,43.3956591 172.525552,43.8046594 C172.812352,44.2143861 173.242553,44.5514663 173.816883,44.8180793 L173.816883,46.1068298 L164.282579,46.1068298 C164.014704,45.4312165 163.83054,44.7977383 163.728631,44.2042156 C163.625266,43.610693 163.543739,42.9350797 163.482594,42.1781022 C162.272062,43.4879202 160.878094,44.6030454 159.299234,45.5234777 C157.412464,46.6088178 155.279657,47.1507614 152.90154,47.1507614 C149.866111,47.1507614 147.359881,46.2855405 145.380665,44.5565516 C143.401449,42.8275627 142.412932,40.3771932 142.412932,37.2047166 C142.412932,33.0914666 144.001255,30.1136828 147.180084,28.2720918 C148.922726,27.2695688 151.485735,26.5525469 154.869838,26.1232056 L157.853584,25.7541609 C159.473207,25.550024 160.632057,25.294308 161.329405,24.9877394 C162.579973,24.4552399 163.205256,23.6270687 163.205256,22.5010466 C163.205256,21.1302054 162.729196,20.1836203 161.774892,19.6612913 C160.822044,19.1396888 159.422253,18.8788875 157.576974,18.8788875 C155.505312,18.8788875 154.03928,19.3903195 153.17815,20.41391 C152.563057,21.1708875 152.15251,22.1937515 151.947964,23.4832285 L143.488799,23.4832285 C143.673691,20.5570238 144.49333,18.1524216 145.949899,16.269422" id="Fill-9"></path>
                <path d="M208.7281,24.6499327 L199.746288,24.6499327 C199.582506,23.4018643 199.161767,22.2758421 198.485529,21.2733192 C197.501381,19.9220926 195.973475,19.2472058 193.902541,19.2472058 C190.949367,19.2472058 188.930116,20.7103081 187.84333,23.6365128 C187.269001,25.1918763 186.9822,27.2593983 186.9822,29.8376258 C186.9822,32.2930806 187.269001,34.2683414 187.84333,35.7619553 C188.888624,38.5457726 190.856921,39.9369549 193.74895,39.9369549 C195.798774,39.9369549 197.255343,39.3841143 198.116474,38.2791597 C198.977604,37.174205 199.500251,35.7423407 199.685142,33.9821138 L208.635654,33.9821138 C208.431108,36.642432 207.467341,39.1596363 205.744353,41.5330005 C202.996453,45.3607493 198.925921,47.2735341 193.533485,47.2735341 C188.140322,47.2735341 184.172427,45.676762 181.6298,42.4846708 C179.086445,39.2918531 177.815496,35.1480916 177.815496,30.0526597 C177.815496,24.3019556 179.220383,19.8298314 182.029428,16.6377402 C184.839202,13.4449225 188.714651,11.8488769 193.656504,11.8488769 C197.859518,11.8488769 201.300398,12.7903767 203.976234,14.6733764 C206.651342,16.5556496 208.236026,19.882137 208.7281,24.6499327" id="Fill-11"></path>
                <path d="M230.10509,39.8759317 L230.10509,46.4141249 L225.95303,46.5674092 C221.810434,46.710523 218.981007,45.9949541 217.464021,44.4185231 C216.479144,43.4160001 215.98707,41.8708071 215.98707,39.7836706 L215.98707,19.1861826 L211.312364,19.1861826 L211.312364,12.9538316 L215.98707,12.9538316 L215.98707,3.62237697 L224.660971,3.62237697 L224.660971,12.9538316 L230.10509,12.9538316 L230.10509,19.1861826 L224.660971,19.1861826 L224.660971,36.8669099 C224.660971,38.2384776 224.834944,39.0928015 225.183618,39.4306081 C225.532292,39.7684148 226.599424,39.9369549 228.382829,39.9369549 C228.649248,39.9369549 228.931682,39.9318696 229.228673,39.9209726 C229.525665,39.9115286 229.817561,39.8962728 230.10509,39.8759317" id="Fill-13"></path>
                <path d="M254.670954,1.58609302 L254.670954,28.6709215 C254.670954,33.3326533 255.395963,36.993315 256.824143,39.5533809 C259.477413,44.1911392 264.64565,46.5470682 272.183267,46.5470682 C279.718701,46.5470682 284.876747,44.1918657 287.513275,39.5482956 C288.939999,36.9925885 289.66428,33.3312003 289.66428,28.6709215 L289.66428,1.58609302 L281.492644,1.58609302 L281.492644,28.6709215 C281.492644,31.9298476 281.103934,34.2668884 280.304677,35.8178932 C279.049742,38.5937194 276.311305,40.018319 272.183267,40.018319 C268.033392,40.018319 265.285492,38.5937194 264.013815,35.7844757 C263.230572,34.266162 262.84259,31.9283947 262.84259,28.6709215 L262.84259,1.58609302 L254.670954,1.58609302 Z M272.183267,48 C264.085151,48 258.491081,45.3985256 255.556105,40.2667704 C254.001995,37.4822266 253.215113,33.583284 253.215113,28.6709215 L253.215113,0.133161201 L264.298431,0.133161201 L264.298431,28.6709215 C264.298431,31.6501582 264.643466,33.8310089 265.3248,35.1539033 C266.369366,37.4604326 268.607721,38.5653872 272.183267,38.5653872 C275.736976,38.5653872 277.965141,37.4604326 278.99442,35.1865943 C279.691768,33.8317354 280.036803,31.6508847 280.036803,28.6709215 L280.036803,0.133161201 L291.120122,0.133161201 L291.120122,28.6709215 C291.120122,33.5818311 290.333967,37.4807736 288.782769,40.2595057 C285.865263,45.3977991 280.282112,48 272.183267,48 L272.183267,48 Z" id="Fill-15"></path>
                <path d="M297.41496,36.1506872 C297.576559,39.0659949 298.726673,41.4328208 300.917714,43.368126 C303.280545,45.457442 307.04535,46.5166293 312.108038,46.5166293 C317.072456,46.5166293 320.768837,45.5162857 323.093815,43.5432043 C325.415154,41.5730287 326.544159,39.0979594 326.544159,35.9770618 C326.544159,33.6422004 325.770379,31.753389 324.179145,30.2038373 C322.545691,28.6506531 320.020534,27.4614284 316.677923,26.6768453 C309.565411,25.1178494 307.953067,24.5061651 307.359812,24.1814349 C306.27157,23.6133385 305.689234,22.6369683 305.689234,21.3649265 C305.689234,20.3275332 306.19805,19.4281684 307.201125,18.6929849 C308.14815,17.9984835 309.622917,17.6614033 311.708409,17.6614033 C314.244485,17.6614033 316.089763,18.3508195 317.194747,19.7100372 C317.690461,20.3442419 318.029672,21.1484397 318.210924,22.1124599 L325.531621,22.1124599 C325.055561,18.6893526 323.680519,16.2302655 321.437068,14.7954953 C318.92283,13.2212437 315.608608,12.4221312 311.585391,12.4221312 C307.384561,12.4221312 304.098727,13.4784126 301.818152,15.5619168 C299.525202,17.6584975 298.410028,20.0885259 298.410028,22.9922102 C298.410028,25.4178798 299.095729,27.2086183 300.504983,28.4675837 C301.971015,29.7955634 304.56678,30.9273973 308.223853,31.8340268 C315.404062,33.5346835 316.996024,34.205938 317.568898,34.5619062 C318.59745,35.205555 319.141206,36.1935487 319.141206,37.4198231 C319.141206,38.7165648 318.476615,39.7372494 317.219496,40.3707277 C316.107233,40.9315593 314.614996,41.216334 312.784276,41.216334 C309.61127,41.216334 307.46536,40.5683264 306.2228,39.234535 C305.587325,38.5574688 305.160036,37.5447753 304.924917,36.1506872 L297.41496,36.1506872 Z M312.108038,47.9695611 C306.679206,47.9695611 302.589748,46.787601 299.951764,44.4563719 C297.289758,42.1026224 295.939465,39.064542 295.939465,35.4242213 L295.939465,34.6977554 L306.203146,34.6977554 L306.279577,35.3392248 C306.444087,36.7296805 306.782571,37.7067772 307.28702,38.2436355 C308.227493,39.2526966 310.076411,39.7634022 312.784276,39.7634022 C314.384973,39.7634022 315.655923,39.5309331 316.562912,39.0732595 C317.328684,38.6875061 317.685365,38.1622713 317.685365,37.4198231 C317.685365,36.6897249 317.402932,36.1732076 316.796574,35.7947189 C316.375836,35.5317382 314.65576,34.8510397 307.879547,33.24555 C303.924754,32.264821 301.19578,31.0552553 299.530298,29.5463856 C297.822596,28.0222601 296.954187,25.8152567 296.954187,22.9922102 C296.954187,19.7042255 298.260076,16.8441292 300.835459,14.4911061 C303.391916,12.1540653 307.008954,10.9691994 311.585391,10.9691994 C315.888129,10.9691994 319.464403,11.8431378 322.214487,13.5670415 L322.219583,13.5706738 C325.030812,15.367224 326.663538,18.4619688 327.074085,22.7699116 L327.149789,23.5653918 L316.929784,23.5653918 L316.859175,22.9173842 C316.751443,21.9337493 316.481385,21.1586102 316.055551,20.6144872 C315.249015,19.6228613 313.783711,19.1143351 311.708409,19.1143351 C309.540662,19.1143351 308.52958,19.521156 308.062983,19.8633215 C307.445706,20.3166362 307.145075,20.8077272 307.145075,21.3649265 C307.145075,22.101563 307.423869,22.5752187 308.046969,22.9014019 C308.60674,23.2072441 310.601242,23.8574311 317.00112,25.2602367 C320.608694,26.107296 323.360962,27.4178405 325.190227,29.1584528 C327.056615,30.9760705 328,33.2680705 328,35.9770618 C328,39.499695 326.666449,42.4179086 324.0372,44.6496119 C321.441435,46.8522565 317.428409,47.9695611 312.108038,47.9695611 L312.108038,47.9695611 Z" id="Fill-18"></path>
            </g>
        </g>
    </g>
</svg>