<?xml version="1.0" encoding="UTF-8"?>
<svg width="850px" height="60px" viewBox="0 0 850 60" version="1.1" xmlns="http://www.w3.org/2000/svg" xmlns:xlink="http://www.w3.org/1999/xlink">
    <title>title_03</title>
    <defs>
        <polygon id="path-1" points="-5.77315973e-14 60 850 60 850 0 -5.77315973e-14 0"></polygon>
    </defs>
    <g id="Page-1" stroke="none" stroke-width="1" fill="none" fill-rule="evenodd">
        <g id="3-・-Medium" transform="translate(-375, -3154)">
            <g id="title_03" transform="translate(375, 3154)">
                <path d="M-3.55271368e-15,0.705073907 L-3.55271368e-15,46.6608606 L10.9286185,46.6608606 L10.9286185,27.9681703 L30.9384351,27.9681703 L30.9384351,18.7929039 L10.9286185,18.7929039 L10.9286185,9.97196407 L33.7842236,9.97196407 L33.7842236,0.705073907 L-3.55271368e-15,0.705073907 Z M1.46388299,2.13669605 L32.3210726,2.13669605 L32.3210726,8.54034192 L9.46400355,8.54034192 L9.46400355,20.2252419 L29.4752841,20.2252419 L29.4752841,26.5365481 L9.46400355,26.5365481 L9.46400355,45.2292385 L1.46388299,45.2292385 L1.46388299,2.13669605 Z" id="Fill-1" fill="#191A1C"></path>
                <path d="M39.3511511,45.2293817 L46.7635226,45.2293817 L46.7635226,30.1858961 C46.7635226,27.4013911 47.1251017,25.3734983 47.8680223,23.9862564 C49.2162586,21.4830651 51.838073,20.2153637 55.6610034,20.2153637 C55.9369454,20.2153637 56.2992564,20.2246692 56.7464727,20.2454278 C56.9704468,20.2561649 57.2097917,20.2719128 57.4652392,20.2926713 L57.4652392,12.9241121 C57.4271783,12.9212489 57.3957048,12.9191014 57.3700868,12.9162382 C57.2793261,12.9090801 57.1614835,12.9047852 57.0224146,12.9047852 C54.5726064,12.9047852 52.5663548,13.5304041 51.0585553,14.7644624 C50.1106911,15.5217905 48.9688623,16.9763186 47.6579551,19.0929719 L46.2994717,21.2869329 L46.2994717,13.6914616 L39.3511511,13.6914616 L39.3511511,45.2293817 Z M48.2274056,46.6610038 L37.8872681,46.6610038 L37.8872681,12.2598394 L47.7633547,12.2598394 L47.7633547,16.3048878 C48.622654,15.1109149 49.4029037,14.2383412 50.1253299,13.6613975 C51.8973603,12.2111643 54.2198106,11.473163 57.0224146,11.473163 C57.2119875,11.473163 57.3730146,11.4803212 57.5040321,11.4910583 C57.6174831,11.5017955 57.8590238,11.5153959 58.2359736,11.5347228 L58.9291222,11.5712292 L58.9291222,21.8810561 L58.1166672,21.7937271 C57.5764943,21.7350306 57.0970727,21.695661 56.6762063,21.6756183 C56.2597316,21.6562914 55.9201107,21.6469858 55.6610034,21.6469858 C52.3782458,21.6469858 50.2534197,22.6297944 49.1635588,24.6519607 C48.5428724,25.8115747 48.2274056,27.6741151 48.2274056,30.1858961 L48.2274056,46.6610038 Z" id="Fill-2" fill="#191A1C"></path>
                <path d="M70.6562889,25.4474416 L82.6923349,25.4474416 C82.4661649,23.7359373 81.8564577,22.4088236 80.8734602,21.4947328 C79.7360231,20.4367641 78.3577773,19.9220959 76.6618689,19.9220959 C74.8239638,19.9220959 73.4508415,20.456091 72.4634524,21.554861 C71.5858546,22.5305114 70.9790751,23.8375825 70.6562889,25.4474416 L70.6562889,25.4474416 Z M84.2747924,26.8790637 L68.9603804,26.8790637 L69.0701717,26.0694814 C69.3768551,23.797497 70.1490534,21.9607258 71.3640763,20.6092745 C72.6281393,19.2034216 74.4104168,18.4904737 76.6618689,18.4904737 C78.7230161,18.4904737 80.4789438,19.1518832 81.8820756,20.4568068 C83.2822797,21.7595829 84.0713126,23.6643562 84.2272162,26.1188724 L84.2747924,26.8790637 Z M76.6618689,12.8140919 C72.1706758,12.8140919 68.4729074,14.2757781 65.6710354,17.1583493 C62.8596481,20.0516577 61.434558,24.3021439 61.434558,29.7931306 C61.434558,35.6334331 63.0016447,39.8867825 66.0919017,42.4329225 C69.2194877,45.011274 72.8791952,46.318345 76.9707482,46.318345 C81.9223324,46.318345 85.8162612,44.7822145 88.5449391,41.7514704 C90.0366358,40.1308741 90.9757168,38.5310364 91.3490069,36.9813054 L83.6687448,36.9813054 C83.2010342,37.8424261 82.6637891,38.5424894 82.0687207,39.0657472 C80.8039258,40.1910023 79.149738,40.7629353 77.1559294,40.7629353 C75.3004577,40.7629353 73.682135,40.3026688 72.3470737,39.3943045 C70.1585687,37.9383448 68.9794109,35.4072368 68.8469295,31.875425 L68.8198477,31.1338447 L91.9272407,31.1338447 C91.9433434,28.6829076 91.8503869,26.7631023 91.6491029,25.4202408 C91.2750808,22.9571348 90.4494508,20.7646055 89.1949031,18.9049284 C87.8093379,16.8054545 86.0387714,15.2550077 83.929316,14.2900944 C81.789119,13.310149 79.3444344,12.8140919 76.6618689,12.8140919 L76.6618689,12.8140919 Z M76.9707482,47.7499672 C72.5242036,47.7499672 68.5468335,46.329798 65.1484291,43.5281135 C61.7126957,40.6970807 59.970675,36.0758044 59.970675,29.7931306 C59.970675,23.922764 61.5319062,19.3401415 64.6104521,16.1726775 C67.6985133,12.9944763 71.7542011,11.3824698 76.6618689,11.3824698 C79.5603572,11.3824698 82.2143771,11.923623 84.5492704,12.9937605 C86.9112456,14.0732036 88.8874877,15.7990241 90.4209051,18.1232627 C91.7896357,20.1525871 92.6913876,22.539817 93.0976152,25.2119397 C93.3289087,26.75666 93.424793,28.9935696 93.3830723,31.860393 L93.3728252,32.5654669 L70.3561929,32.5654669 C70.5904141,35.2254208 71.5375464,37.1237518 73.1763635,38.2146479 C74.2676882,38.956944 75.6049453,39.3313132 77.1559294,39.3313132 C78.7976741,39.3313132 80.0829634,38.8968158 81.0864552,38.0041994 C81.6332155,37.5238902 82.127276,36.8359958 82.5583896,35.9562639 L82.7574776,35.5496833 L93.037596,35.5496833 L92.9453713,36.346381 C92.7023668,38.4437074 91.5898157,40.5832667 89.6384597,42.7034991 C86.6250565,46.0499159 82.3614973,47.7499672 76.9707482,47.7499672 L76.9707482,47.7499672 Z" id="Fill-4" fill="#191A1C"></path>
                <path d="M112.909808,20.4360482 C110.900628,20.4360482 109.332809,21.1676072 108.117787,22.6743895 C106.877878,24.2112358 106.24914,26.6270982 106.24914,29.8532587 C106.24914,32.0257453 106.542649,33.8159888 107.120882,35.1738824 L107.123078,35.1788931 C108.163167,37.6670524 110.045721,38.8774889 112.878334,38.8774889 C115.631166,38.8774889 117.530554,37.7615395 118.68629,35.4659334 C119.456292,33.9018862 119.847881,31.8696985 119.847881,29.4294986 C119.847881,27.5211463 119.514116,25.7946099 118.8561,24.2985648 C117.714272,21.6994548 115.769503,20.4360482 112.909808,20.4360482 L112.909808,20.4360482 Z M112.878334,40.3091111 C109.433817,40.3091111 107.041833,38.7658224 105.768986,35.7229095 C105.116826,34.1896422 104.785257,32.2147195 104.785257,29.8532587 C104.785257,26.2971093 105.520126,23.5834695 106.968638,21.7882154 C108.458871,19.9414228 110.457804,19.0044261 112.909808,19.0044261 C116.369695,19.0044261 118.822431,20.5956741 120.200677,23.7330741 C120.937742,25.4087878 121.311764,27.3257298 121.311764,29.4294986 C121.311764,32.0858735 120.871135,34.3277938 120.002321,36.092268 C118.593333,38.8918052 116.197689,40.3091111 112.878334,40.3091111 L112.878334,40.3091111 Z M121.064368,58.2960117 L128.323032,58.2960117 L128.323032,13.7518044 L121.281022,13.7518044 L121.281022,20.573484 L119.917415,18.2986364 C118.919047,16.632944 117.940441,15.4289498 117.007216,14.7210126 C115.407924,13.4733539 113.272119,12.8448718 110.651768,12.8448718 C106.806879,12.8448718 103.658067,14.370981 101.027469,17.5126758 C98.3968716,20.652939 97.0640061,24.9270469 97.0640061,30.2168908 C97.0640061,35.0951432 98.3858925,39.0371148 100.994532,41.9325706 C103.614883,44.8430584 106.692697,46.2567853 110.404372,46.2567853 C113.00862,46.2567853 115.073427,45.772897 116.540237,44.8187208 C118.020223,43.8581024 119.074219,42.7579008 119.673679,41.5488959 L121.064368,41.8617053 L121.064368,58.2960117 Z M129.786915,59.7276339 L119.600485,59.7276339 L119.600485,44.1558798 C118.98053,44.8201525 118.228826,45.4414765 117.350497,46.0112621 C115.639217,47.1243483 113.302128,47.6884074 110.404372,47.6884074 C106.305499,47.6884074 102.76949,46.0706744 99.8958878,42.8795886 C97.0457076,39.7149879 95.6001231,35.4544804 95.6001231,30.2168908 C95.6001231,24.5884683 97.0449757,20.0079932 99.8951558,16.6050274 C102.781201,13.1598287 106.39992,11.4132497 110.651768,11.4132497 C113.611739,11.4132497 116.05496,12.1476718 117.911896,13.5950418 C118.539902,14.071772 119.177423,14.7281707 119.817139,15.5556483 L119.817139,12.3201823 L129.786915,12.3201823 L129.786915,59.7276339 Z" id="Fill-6" fill="#191A1C"></path>
                <path d="M137.766541,13.6917479 L137.766541,32.8482838 C137.766541,36.492478 138.230592,39.2662459 139.144787,41.0929958 C140.760913,44.3663998 143.843119,45.9547846 148.570729,45.9547846 C150.210278,45.9547846 151.652935,45.7443361 152.859174,45.3298815 C154.048579,44.9211534 155.314106,44.1337612 156.619158,42.9920426 C157.026849,42.6470216 157.375985,42.2511781 157.665834,41.8080911 C158.123298,41.1087436 158.260903,40.9233486 158.328973,40.8403145 L159.632561,39.24334 L159.632561,45.229668 L166.736053,45.229668 L166.736053,13.6917479 L159.261467,13.6917479 L159.261467,30.9120149 C159.261467,33.1195762 158.94966,34.9355889 158.334829,36.310662 C157.09126,38.9677527 154.786376,40.3091827 151.478001,40.3091827 C148.829837,40.3091827 147.014622,39.3263741 146.08286,37.3879577 C145.578552,36.3314205 145.333352,34.8468284 145.333352,32.8482838 L145.333352,13.6917479 L137.766541,13.6917479 Z M148.570729,47.3864067 C143.299287,47.3864067 139.684959,45.479486 137.828756,41.7186147 C136.802574,39.6692476 136.302658,36.7666337 136.302658,32.8482838 L136.302658,12.2601257 L146.797235,12.2601257 L146.797235,32.8482838 C146.797235,34.6084633 147.002911,35.9305663 147.408406,36.7795183 C148.086916,38.1910977 149.418317,38.8775605 151.478001,38.8775605 C154.200823,38.8775605 156.005791,37.8460768 156.998304,35.7258444 C157.527497,34.5440403 157.797584,32.919865 157.797584,30.9120149 L157.797584,12.2601257 L168.199936,12.2601257 L168.199936,46.6612901 L158.168678,46.6612901 L158.168678,43.5117214 C157.985693,43.7085695 157.790996,43.8932487 157.586053,44.0671908 C156.146324,45.3263025 154.71611,46.2088975 153.344452,46.680617 C151.982309,47.1487575 150.376429,47.3864067 148.570729,47.3864067 L148.570729,47.3864067 Z" id="Fill-8" fill="#191A1C"></path>
                <path d="M183.267391,25.4474416 L195.303437,25.4474416 C195.077267,23.7359373 194.46756,22.4088236 193.484562,21.4947328 C192.347125,20.4367641 190.96888,19.9220959 189.272971,19.9220959 C187.435066,19.9220959 186.061944,20.456091 185.074555,21.554861 C184.196957,22.5305114 183.590177,23.8375825 183.267391,25.4474416 L183.267391,25.4474416 Z M196.885895,26.8790637 L181.571483,26.8790637 L181.681274,26.0694814 C181.987957,23.797497 182.760156,21.9607258 183.975179,20.6092745 C185.239242,19.2034216 187.021519,18.4904737 189.272971,18.4904737 C191.334118,18.4904737 193.090046,19.1518832 194.493178,20.4568068 C195.893382,21.7595829 196.682415,23.6643562 196.838318,26.1188724 L196.885895,26.8790637 Z M189.272971,12.8140919 C184.781778,12.8140919 181.08401,14.2757781 178.282138,17.1583493 C175.47075,20.0516577 174.04566,24.3021439 174.04566,29.7931306 C174.04566,35.6334331 175.612747,39.8867825 178.703004,42.4329225 C181.83059,45.011274 185.490297,46.318345 189.58185,46.318345 C194.533435,46.318345 198.427363,44.7822145 201.156041,41.7514704 C202.647738,40.1308741 203.586819,38.5310364 203.960109,36.9813054 L196.279847,36.9813054 C195.812136,37.8424261 195.274891,38.5424894 194.679823,39.0657472 C193.415028,40.1910023 191.76084,40.7629353 189.767032,40.7629353 C187.91156,40.7629353 186.293237,40.3026688 184.958176,39.3943045 C182.769671,37.9383448 181.590513,35.4072368 181.458032,31.875425 L181.43095,31.1338447 L204.538343,31.1338447 C204.554446,28.6829076 204.461489,26.7631023 204.260205,25.4202408 C203.886183,22.9571348 203.060553,20.7646055 201.806005,18.9049284 C200.42044,16.8054545 198.649874,15.2550077 196.540418,14.2900944 C194.400221,13.310149 191.955537,12.8140919 189.272971,12.8140919 L189.272971,12.8140919 Z M189.58185,47.7499672 C185.135306,47.7499672 181.157936,46.329798 177.759531,43.5281135 C174.323798,40.6970807 172.581777,36.0758044 172.581777,29.7931306 C172.581777,23.922764 174.143008,19.3401415 177.221554,16.1726775 C180.309616,12.9944763 184.365303,11.3824698 189.272971,11.3824698 C192.171459,11.3824698 194.825479,11.923623 197.160373,12.9937605 C199.522348,14.0732036 201.49859,15.7990241 203.032007,18.1232627 C204.400738,20.1525871 205.30249,22.539817 205.708717,25.2119397 C205.940011,26.75666 206.035895,28.9935696 205.994175,31.860393 L205.983927,32.5654669 L182.967295,32.5654669 C183.201516,35.2254208 184.148649,37.1237518 185.787466,38.2146479 C186.87879,38.956944 188.216048,39.3313132 189.767032,39.3313132 C191.408776,39.3313132 192.694066,38.8968158 193.697557,38.0041994 C194.244318,37.5238902 194.738378,36.8359958 195.169492,35.9562639 L195.36858,35.5496833 L205.648698,35.5496833 L205.556474,36.346381 C205.313469,38.4437074 204.200918,40.5832667 202.249562,42.7034991 C199.236159,46.0499159 194.9726,47.7499672 189.58185,47.7499672 L189.58185,47.7499672 Z" id="Fill-10" fill="#191A1C"></path>
                <path d="M233.459328,45.2293817 L241.026139,45.2293817 L241.026139,23.7435965 C241.026139,19.8538791 239.997029,17.0529104 237.968087,15.4187137 C235.896693,13.7501581 233.175334,12.9047852 229.881598,12.9047852 C227.272958,12.9047852 225.100556,13.5282566 223.42441,14.7580201 C222.486793,15.4494936 221.462075,16.6212763 220.380997,18.2375777 L219.036421,20.2461436 L219.036421,13.7515897 L211.994411,13.7515897 L211.994411,45.2293817 L219.314558,45.2293817 L219.314558,28.098591 C219.314558,25.9740638 219.626365,24.1895468 220.240464,22.7951468 C221.477445,20.0385584 223.773546,18.642011 227.067283,18.642011 C229.789373,18.642011 231.674854,19.6298302 232.670295,21.578268 C233.200952,22.6169098 233.459328,24.0277735 233.459328,25.8910297 L233.459328,45.2293817 Z M242.490022,46.6610038 L231.995445,46.6610038 L231.995445,25.8910297 C231.995445,24.2775915 231.781718,23.0421016 231.360851,22.2189189 C230.623054,20.775128 229.219191,20.0736331 227.067283,20.0736331 C224.37081,20.0736331 222.576822,21.150213 221.582845,23.3656482 C221.04926,24.5760848 220.778441,26.170196 220.778441,28.098591 L220.778441,46.6610038 L210.530528,46.6610038 L210.530528,12.3199675 L220.500304,12.3199675 L220.500304,15.6248673 C221.198576,14.7730521 221.87489,14.1080636 222.543884,13.614154 C224.480601,12.193269 226.948708,11.473163 229.881598,11.473163 C233.523739,11.473163 236.557636,12.4287708 238.899117,14.3135014 C241.281587,16.2325909 242.490022,19.4057814 242.490022,23.7435965 L242.490022,46.6610038 Z" id="Fill-12" fill="#191A1C"></path>
                <path d="M247.161053,18.7024254 L251.862313,18.7024254 L251.862313,39.7143437 C251.862313,41.5668627 252.291231,42.9354935 253.138087,43.7801506 C254.509746,45.1774138 257.198167,45.8166331 261.125765,45.6827764 L264.593704,45.5575095 L264.593704,40.5604323 C264.552715,40.561864 264.510994,40.5632956 264.469274,40.5647272 C264.164054,40.576896 263.871277,40.5804751 263.593871,40.5804751 C260.961078,40.5804751 260.232796,40.2261486 259.867557,39.8789802 C259.350807,39.3893654 259.120245,38.4523687 259.120245,36.841078 L259.120245,18.7024254 L264.593704,18.7024254 L264.593704,13.9938202 L259.120245,13.9938202 L259.120245,4.79851111 L251.862313,4.79851111 L251.862313,13.9938202 L247.161053,13.9938202 L247.161053,18.7024254 Z M260.119345,47.1322938 C256.272993,47.1322938 253.639467,46.358502 252.087019,44.7772754 C250.967881,43.6598943 250.39843,41.9548323 250.39843,39.7143437 L250.39843,20.1340476 L245.69717,20.1340476 L245.69717,12.562198 L250.39843,12.562198 L250.39843,3.36688897 L260.584128,3.36688897 L260.584128,12.562198 L266.057587,12.562198 L266.057587,20.1340476 L260.584128,20.1340476 L260.584128,36.841078 C260.584128,38.5396977 260.874709,38.8403383 260.887152,38.8517913 C260.921553,38.8775605 261.346811,39.1488529 263.593871,39.1488529 C263.852979,39.1488529 264.127457,39.1452739 264.416574,39.1345367 C264.70935,39.1245153 264.994076,39.1109149 265.273677,39.0908722 L266.057587,39.0357548 L266.057587,46.9368774 L261.177733,47.1129669 C260.815422,47.1258515 260.462626,47.1322938 260.119345,47.1322938 L260.119345,47.1322938 Z" id="Fill-14" fill="#191A1C"></path>
                <mask id="mask-2" fill="white">
                    <use xlink:href="#path-1"></use>
                </mask>
                <g id="Clip-17"></g>
                <path d="M271.903091,45.2292385 L279.253979,45.2292385 L279.253979,2.07656792 L271.903091,2.07656792 L271.903091,45.2292385 Z M270.439208,46.6608606 L280.717862,46.6608606 L280.717862,0.644945777 L270.439208,0.644945777 L270.439208,46.6608606 Z" id="Fill-16" fill="#191A1C" mask="url(#mask-2)"></path>
                <path d="M290.677244,58.4893523 C291.277436,58.5244271 291.751002,58.5451856 292.096479,58.5530595 C292.564921,58.5630809 293.188535,58.5680915 293.965857,58.5680915 C297.618245,58.5680915 300.052683,57.8952291 301.201099,56.5673996 C302.435152,55.1400723 304.170585,51.3033249 306.357627,45.1645292 L317.585609,13.6917479 L309.799947,13.6917479 L302.304867,39.8811276 L294.37794,13.6917479 L286.153845,13.6917479 L298.182572,47.1587788 C298.314322,47.5496117 298.265281,48.0964913 297.630688,49.6576753 C297.127112,50.893881 296.568641,51.7034633 295.923069,52.1322342 C295.30165,52.5538469 294.527988,52.8294342 293.629164,52.9461114 C292.810121,53.049904 291.933987,53.0813996 291.024184,53.0427459 L290.677244,53.0227031 L290.677244,58.4893523 Z M293.965857,59.9997137 C293.17536,59.9997137 292.542231,59.994703 292.063541,59.9846816 C291.579728,59.9725129 290.858765,59.9374381 289.897726,59.8765942 L289.213361,59.8336455 L289.213361,51.5080469 L291.099574,51.6132711 C291.915689,51.6476301 292.705454,51.6204292 293.437395,51.526658 C294.101998,51.4400449 294.66047,51.2467759 295.095243,50.9518617 C295.368989,50.7700457 295.789123,50.3090634 296.270009,49.1279751 C296.70771,48.0535427 296.769925,47.6712996 296.777976,47.5675069 L284.087575,12.2601257 L295.471461,12.2601257 L302.266074,34.7065294 L308.68886,12.2601257 L319.646756,12.2601257 L307.740264,45.6355329 C305.46173,52.0298732 303.688236,55.9081376 302.318773,57.4922275 C300.85855,59.18011 298.126213,59.9997137 293.965857,59.9997137 L293.965857,59.9997137 Z" id="Fill-18" fill="#191A1C" mask="url(#mask-2)"></path>
                <path d="M353.276833,28.3812648 L362.834525,28.3812648 L358.131801,13.8868064 L353.276833,28.3812648 Z M364.834189,29.812887 L351.256675,29.812887 L358.154491,9.22114983 L364.834189,29.812887 Z M369.969491,45.2293101 L378.727171,45.2293101 L363.10022,2.07663951 L353.370522,2.07663951 L337.624264,45.2293101 L346.018901,45.2293101 L349.173569,36.0640651 L367.031478,36.0640651 L369.969491,45.2293101 Z M380.798565,46.6609322 L368.894269,46.6609322 L365.956256,37.4956872 L350.225369,37.4956872 L347.070701,46.6609322 L335.547746,46.6609322 L352.338484,0.645017358 L364.134453,0.645017358 L380.798565,46.6609322 Z" id="Fill-19" fill="#191A1C" mask="url(#mask-2)"></path>
                <path d="M383.514434,36.135002 C383.676925,39.006836 384.833393,41.3389485 387.036537,43.246585 C389.412419,45.3045418 393.197288,46.3481944 398.288673,46.3481944 C403.281978,46.3481944 406.998045,45.3625225 409.335134,43.4190955 C411.669296,41.4771 412.804537,39.0383317 412.804537,35.9632073 C412.804537,33.6625905 412.026483,31.8014817 410.427191,30.2746567 C408.783251,28.7442526 406.244146,27.5724699 402.883802,26.7993939 C395.734198,25.264695 394.112215,24.6612663 393.514219,24.3405829 C392.419967,23.7808186 391.834413,22.8187686 391.834413,21.5653834 C391.834413,20.5432052 392.345308,19.6570311 393.354656,18.9326302 C394.308376,18.2483149 395.790557,17.9161785 397.886838,17.9161785 C400.43619,17.9161785 402.292393,18.5954832 403.403481,19.9347658 C403.901933,20.5596688 404.243017,21.3520717 404.425271,22.301953 L411.786407,22.301953 C411.307717,18.9290512 409.924347,16.5060307 407.669236,15.0930196 C405.14111,13.5411412 401.80858,12.7537491 397.763139,12.7537491 C393.539105,12.7537491 390.235853,13.7945384 387.941948,15.8474845 C385.635601,17.9133153 384.514998,20.3084191 384.514998,23.169516 C384.514998,25.5596092 385.204487,27.3233677 386.621526,28.5638682 C388.095656,29.8723709 390.70576,30.9876045 394.383034,31.8809368 C401.604368,33.5573663 403.204393,34.2187757 403.779699,34.570239 C404.813932,35.2023001 405.360692,36.176519 405.360692,37.3848081 C405.360692,38.6618151 404.69243,39.6682454 403.428367,40.2931485 C402.309228,40.8450388 400.808748,41.1256368 398.968647,41.1256368 C395.778114,41.1256368 393.620351,40.4871333 392.370926,39.1729042 C391.731941,38.5064841 391.302292,37.5079276 391.065875,36.135002 L383.514434,36.135002 Z M398.288673,47.7798165 C392.829854,47.7798165 388.717074,46.6151919 386.06525,44.31887 C383.387808,41.9989263 382.030789,39.0054044 382.030789,35.4191909 L382.030789,34.7033798 L392.351164,34.7033798 L392.428018,35.335441 C392.592705,36.7047876 392.933789,37.6675535 393.441025,38.1965379 C394.386693,39.1907994 396.245825,39.6940146 398.968647,39.6940146 C400.577454,39.6940146 401.856156,39.4649551 402.768155,39.0147099 C403.537426,38.6338984 403.896809,38.116367 403.896809,37.3848081 C403.896809,36.665418 403.612816,36.1564763 403.003841,35.7842545 C402.485626,35.4671502 400.509384,34.7749609 394.036825,33.2717577 C390.059455,32.3054127 387.316138,31.1135873 385.641456,29.6268477 C383.924322,28.1250761 383.051115,25.950442 383.051115,23.169516 C383.051115,19.9290393 384.364218,17.1108911 386.953095,14.792379 C389.525138,12.4896148 393.162155,11.3221269 397.763139,11.3221269 C402.089646,11.3221269 405.685674,12.1832476 408.450949,13.8818673 L408.456073,13.8854464 C411.282831,15.6556472 412.925308,18.7050023 413.336659,22.949762 L413.413513,23.7335751 L403.137786,23.7335751 L403.066056,23.0950716 C402.957728,22.1258634 402.685446,21.362093 402.257992,20.8259505 C401.447001,19.8488684 399.973603,19.3478007 397.886838,19.3478007 C395.707848,19.3478007 394.691181,19.7493707 394.221275,20.0865177 C393.599856,20.532468 393.298296,21.0163563 393.298296,21.5653834 C393.298296,22.2912158 393.577898,22.7586404 394.205172,23.0793238 C394.768767,23.3813961 396.77575,24.0227628 403.208052,25.4035624 C406.835554,26.2381981 409.602293,27.5302371 411.442394,29.2446046 C413.319824,31.0355639 414.26842,33.2939478 414.26842,35.9632073 C414.26842,39.4341752 412.927503,42.3095883 410.283731,44.5092757 C407.674359,46.6788991 403.638434,47.7798165 398.288673,47.7798165 L398.288673,47.7798165 Z" id="Fill-20" fill="#191A1C" mask="url(#mask-2)"></path>
                <path d="M440.780293,45.2293817 L449.706319,45.2293817 L437.837156,25.6490856 L448.866782,13.8424977 L439.942952,13.8424977 L427.89739,27.4479188 L427.89739,2.22774722 L420.700942,2.22774722 L420.700942,45.2293817 L427.89739,45.2293817 L427.89739,35.282471 L432.434696,30.6576156 L440.780293,45.2293817 Z M452.275434,46.6610038 L439.922457,46.6610038 L432.122889,33.0426981 L429.361273,35.8579831 L429.361273,46.6610038 L419.237059,46.6610038 L419.237059,0.796125076 L429.361273,0.796125076 L429.361273,23.6075924 L439.273957,12.4108756 L452.187601,12.4108756 L439.649443,25.8316174 L452.275434,46.6610038 Z" id="Fill-21" fill="#191A1C" mask="url(#mask-2)"></path>
                <path d="M462.583439,25.4474416 L474.619485,25.4474416 C474.394047,23.7359373 473.783608,22.4088236 472.800611,21.4947328 C471.663173,20.4367641 470.28566,19.9220959 468.589019,19.9220959 C466.751846,19.9220959 465.378724,20.456091 464.391335,21.554861 C463.513737,22.5305114 462.906225,23.8375825 462.583439,25.4474416 L462.583439,25.4474416 Z M476.201943,26.8790637 L460.888263,26.8790637 L460.997322,26.0694814 C461.304005,23.797497 462.076204,21.9607258 463.291959,20.6092745 C464.55529,19.2034216 466.338299,18.4904737 468.589019,18.4904737 C470.650166,18.4904737 472.406826,19.1518832 473.809958,20.4568068 C475.210162,21.7595829 475.998463,23.6643562 476.154366,26.1188724 L476.201943,26.8790637 Z M468.589019,12.8140919 C464.097826,12.8140919 460.40079,14.2757781 457.598186,17.1583493 C454.78753,20.0516577 453.361708,24.3021439 453.361708,29.7931306 C453.361708,35.6334331 454.928795,39.8867825 458.019784,42.4329225 C461.146638,45.011274 464.807077,46.318345 468.89863,46.318345 C473.850215,46.318345 477.744143,44.7822145 480.472821,41.7514704 C481.964518,40.1308741 482.903599,38.5310364 483.276157,36.9813054 L475.595895,36.9813054 C475.128916,37.8424261 474.591671,38.5424894 473.996603,39.0657472 C472.731076,40.1910023 471.07762,40.7629353 469.083812,40.7629353 C467.22834,40.7629353 465.610017,40.3026688 464.274956,39.3943045 C462.085719,37.9383448 460.906561,35.4072368 460.774812,31.875425 L460.746998,31.1338447 L483.855123,31.1338447 C483.871226,28.6829076 483.777537,26.7631023 483.576985,25.4202408 C483.202963,22.9571348 482.377333,20.7646055 481.122053,18.9049284 C479.736488,16.8054545 477.966654,15.2550077 475.856466,14.2900944 C473.717001,13.310149 471.271585,12.8140919 468.589019,12.8140919 L468.589019,12.8140919 Z M468.89863,47.7499672 C464.452086,47.7499672 460.473984,46.329798 457.076311,43.5281135 C453.639846,40.6970807 451.897825,36.0758044 451.897825,29.7931306 C451.897825,23.922764 453.459056,19.3401415 456.537602,16.1726775 C459.626396,12.9944763 463.681351,11.3824698 468.589019,11.3824698 C471.487507,11.3824698 474.141527,11.923623 476.476421,12.9937605 C478.839128,14.0732036 480.814638,15.7990241 482.348055,18.1232627 C483.717518,20.1525871 484.618538,22.539817 485.024765,25.2119397 C485.256791,26.75666 485.351943,28.9935696 485.310955,31.860393 L485.300707,32.5654669 L462.284075,32.5654669 C462.517564,35.2254208 463.464697,37.1237518 465.103514,38.2146479 C466.19557,38.956944 467.532828,39.3313132 469.083812,39.3313132 C470.724824,39.3313132 472.010846,38.8968158 473.014337,38.0041994 C473.560366,37.5238902 474.054426,36.8359958 474.486272,35.9562639 L474.684628,35.5496833 L484.965478,35.5496833 L484.872522,36.346381 C484.630249,38.4437074 483.517698,40.5832667 481.566342,42.7034991 C478.552207,46.0499159 474.288648,47.7499672 468.89863,47.7499672 L468.89863,47.7499672 Z" id="Fill-22" fill="#191A1C" mask="url(#mask-2)"></path>
                <path d="M504.93028,20.4360482 C502.602706,20.4360482 500.950715,21.2599468 499.877688,22.956419 C498.749034,24.7380728 498.176656,26.9971725 498.176656,29.6714427 C498.176656,32.5583088 498.760014,34.8768208 499.909894,36.5639875 C500.996827,38.2046265 502.617345,38.998461 504.868065,38.998461 C507.129765,38.998461 508.794932,38.2074898 509.95945,36.5818828 C511.164958,34.8975794 511.776129,32.6642488 511.776129,29.9441667 C511.776129,26.1496522 510.81143,23.422412 508.909114,21.8383221 C507.758502,20.8963148 506.456378,20.4360482 504.93028,20.4360482 M504.868065,40.4300832 C502.120357,40.4300832 500.040179,39.3935887 498.686819,37.3506639 C497.37884,35.4315744 496.712773,32.845349 496.712773,29.6714427 C496.712773,26.7273118 497.358346,24.2140991 498.632656,22.20267 C499.975036,20.0802901 502.094007,19.0044261 504.93028,19.0044261 C506.787948,19.0044261 508.444332,19.5892437 509.854051,20.7445628 C512.101843,22.6171246 513.240012,25.71086 513.240012,29.9441667 C513.240012,32.9641737 512.539544,35.4730915 511.159103,37.4022023 C509.720106,39.411484 507.603331,40.4300832 504.868065,40.4300832 M502.950379,12.9049999 C498.711705,12.9049999 495.423092,14.4003293 492.897162,17.4768853 C490.367572,20.5584519 489.084479,24.8747927 489.084479,30.307083 C489.084479,34.989919 490.384407,38.869615 492.947666,41.8380835 C495.516049,44.8115627 498.58508,46.2567853 502.331888,46.2567853 C504.585536,46.2567853 506.482728,45.8401832 507.972229,45.0191479 C509.46539,44.1952494 510.825337,42.8423665 512.011814,40.9970055 L513.362978,38.8953842 L513.362978,45.2295964 L520.466471,45.2295964 L520.466471,2.13705396 L512.991884,2.13705396 L512.991884,19.6522351 L511.638524,17.5284237 C510.719206,16.0860644 509.507111,14.9421983 508.033712,14.1283211 C506.563974,13.3165913 504.854159,12.9049999 502.950379,12.9049999 M502.331888,47.6884074 C498.186171,47.6884074 494.65309,46.0313048 491.829992,42.7621956 C489.036171,39.5281612 487.620596,35.3370874 487.620596,30.307083 C487.620596,24.5405089 489.012017,19.9220959 491.756065,16.5806898 C494.538175,13.1913244 498.304014,11.4733778 502.950379,11.4733778 C505.108874,11.4733778 507.061694,11.9472447 508.754675,12.8813782 C509.795496,13.4576061 510.723597,14.1762804 511.528001,15.0288114 L511.528001,0.705431813 L521.930354,0.705431813 L521.930354,46.6612185 L511.899095,46.6612185 L511.899095,43.5860942 C510.918294,44.7321077 509.844536,45.6297348 508.691728,46.2660908 C506.980449,47.2095298 504.840252,47.6884074 502.331888,47.6884074" id="Fill-23" fill="#191A1C" mask="url(#mask-2)"></path>
                <path d="M572.879996,38.1412057 L568.271692,33.8463392 L573.189607,28.8249245 L577.797911,33.119791 C578.518873,31.6681261 579.024645,30.3982773 579.31303,29.3088128 C579.766102,27.675332 579.993735,25.7698429 579.993735,23.5923456 C579.993735,18.5916894 578.947059,14.724878 576.854438,11.993343 C574.761086,9.26037628 571.70523,7.89389294 567.683943,7.89389294 C563.910785,7.89389294 560.90031,9.20525883 558.653249,11.826559 C556.405457,14.4478591 555.281927,18.369788 555.281927,23.5923456 C555.281927,29.7025089 556.890002,34.078262 560.106885,36.7196049 C562.189259,38.4332566 564.684447,39.2900824 567.590987,39.2900824 C568.684507,39.2900824 569.735575,39.1598048 570.746387,38.897818 C571.302662,38.7560874 572.014109,38.5041219 572.879996,38.1412057 M574.921381,46.1869221 C572.879996,46.8526264 570.436775,47.1854786 567.590987,47.1854786 C561.652745,47.1854786 556.74581,45.4510683 552.869447,41.9822479 C548.168187,37.8083535 545.817191,31.6788633 545.817191,23.5923456 C545.817191,15.4464156 548.22967,9.28471385 553.054629,5.1115353 C556.993206,1.70427459 561.889894,-7.1581107e-05 567.745426,-7.1581107e-05 C573.642679,-7.1581107e-05 578.591336,1.80448814 582.592128,5.41360757 C587.209947,9.58821775 589.519222,15.4256571 589.519222,22.9273571 C589.519222,26.8993928 589.025162,30.2264826 588.034845,32.9079109 C587.230441,35.4697987 586.044696,37.5964734 584.478341,39.2900824 L589.735877,44.099617 L584.757211,49.1818757 L579.251547,44.099617 C577.581256,45.0881521 576.137868,45.7839205 574.921381,46.1869221" id="Fill-24" fill="#191A1C" mask="url(#mask-2)"></path>
                <path d="M617.695749,41.2868374 C617.613772,41.3877668 617.406632,41.6905549 617.077259,42.1944859 C616.747153,42.6991327 616.355564,43.1422197 615.902492,43.5251787 C614.520587,44.7341836 613.185526,45.562377 611.896577,46.005464 C610.607628,46.4485511 609.097632,46.6704525 607.365859,46.6704525 C602.375482,46.6704525 599.015138,44.9159996 597.282633,41.4078095 C596.313542,39.4722564 595.829729,36.6190334 595.829729,32.8481407 L595.829729,12.9757937 L604.860423,12.9757937 L604.860423,32.8481407 C604.860423,34.7228499 605.087325,36.1351451 605.541129,37.082879 C606.3448,38.7564453 607.922134,39.5932284 610.27313,39.5932284 C613.283606,39.5932284 615.345485,38.4035504 616.4595,36.0234786 C617.03627,34.7343029 617.324655,33.0299567 617.324655,30.9118717 L617.324655,12.9757937 L626.263124,12.9757937 L626.263124,45.9453359 L617.695749,45.9453359 L617.695749,41.2868374 Z" id="Fill-25" fill="#191A1C" mask="url(#mask-2)"></path>
                <path d="M654.902531,26.1632526 C654.758339,23.884826 654.052747,22.1554264 652.783561,20.9757698 C651.515838,19.7961131 649.943628,19.2062848 648.067662,19.2062848 C646.026277,19.2062848 644.443819,19.8319037 643.320289,21.0817098 C642.196027,22.331516 641.490435,24.0265566 641.201318,26.1632526 L654.902531,26.1632526 Z M663.624346,36.2654943 C663.397444,38.2225218 662.356623,40.2081817 660.50042,42.2246215 C657.613643,45.4307393 653.573325,47.0341561 648.377273,47.0341561 C644.088096,47.0341561 640.30469,45.6834206 637.026324,42.980518 C633.747958,40.279047 632.108409,35.8832512 632.108409,29.7931306 C632.108409,24.0866847 633.587663,19.7102158 636.546902,16.6651555 C639.50541,13.6215268 643.345907,12.0982809 648.067662,12.0982809 C650.871729,12.0982809 653.396928,12.6122332 655.645452,13.6415695 C657.892512,14.6687584 659.747984,16.2929338 661.211867,18.5112323 C662.531557,20.4668281 663.387929,22.7359492 663.779518,25.3164481 C664.00642,26.8289569 664.098644,29.0064542 664.057655,31.8496558 L640.984664,31.8496558 C641.108362,35.156703 642.170409,37.4759309 644.170805,38.8066236 C645.387292,39.6333854 646.850443,40.0471242 648.562454,40.0471242 C650.376205,40.0471242 651.851067,39.5424774 652.985576,38.5338996 C653.604067,37.9898832 654.150095,37.2339867 654.624393,36.2654943 L663.624346,36.2654943 Z" id="Fill-26" fill="#191A1C" mask="url(#mask-2)"></path>
                <path d="M693.222962,14.4879445 C695.862343,16.1414681 697.378194,18.9846697 697.769783,23.0175493 L688.955011,23.0175493 C688.831313,21.9087579 688.511455,21.0318894 687.996168,20.385512 C687.027078,19.2165925 685.377281,18.6317749 683.048244,18.6317749 C681.130557,18.6317749 679.764022,18.9245416 678.949371,19.5093592 C678.135452,20.0941769 677.727761,20.7792081 677.727761,21.5658844 C677.727761,22.5544195 678.16107,23.2702306 679.026957,23.7133177 C679.892844,24.1771632 682.955287,24.973861 688.212823,26.102695 C691.717359,26.9094141 694.346492,28.129872 696.099492,29.762637 C697.831998,31.4161606 698.697153,33.4827072 698.697153,35.9629926 C698.697153,39.2299543 697.455048,41.8970664 694.970839,43.9643287 C692.485897,46.0301595 688.6454,47.0637907 683.449347,47.0637907 C678.150091,47.0637907 674.238596,45.9700314 671.711934,43.7825127 C669.186004,41.5942783 667.924136,38.80691 667.924136,35.4189762 L676.861874,35.4189762 C677.047055,36.9515277 677.449623,38.0402763 678.068114,38.6859379 C679.160902,39.8348147 681.181793,40.409611 684.130053,40.409611 C685.861827,40.409611 687.238609,40.1576455 688.259667,39.6537145 C689.279993,39.1490677 689.790157,38.3931712 689.790157,37.3845934 C689.790157,36.4175326 689.377342,35.680963 688.553176,35.177032 C687.728277,34.673101 684.666566,33.805538 679.36731,32.5757746 C675.552431,31.6487992 672.861814,30.4884695 671.294727,29.0969327 C669.72764,27.7261545 668.944463,25.7498002 668.944463,23.1693012 C668.944463,20.1242409 670.166073,17.5079515 672.609294,15.319717 C675.052515,13.1321984 678.490444,12.0377232 682.924545,12.0377232 C687.130281,12.0377232 690.563087,12.8544637 693.222962,14.4879445" id="Fill-27" fill="#191A1C" mask="url(#mask-2)"></path>
                <path d="M720.656422,39.8048938 L720.656422,46.2471934 L716.481428,46.3982296 C712.315949,46.5392443 709.470892,45.8348862 707.945526,44.2815762 C706.955209,43.2930411 706.460417,41.770511 706.460417,39.7139858 L706.460417,19.4185944 L701.759889,19.4185944 L701.759889,13.2776512 L706.460417,13.2776512 L706.460417,4.08305794 L715.182232,4.08305794 L715.182232,13.2776512 L720.656422,13.2776512 L720.656422,19.4185944 L715.182232,19.4185944 L715.182232,36.8407201 C715.182232,38.1914556 715.357166,39.0332494 715.707766,39.3661016 C716.058366,39.6989537 717.131392,39.8650219 718.924649,39.8650219 C719.192539,39.8650219 719.476533,39.860727 719.775165,39.849274 C720.073797,39.8399685 720.367305,39.8249365 720.656422,39.8048938" id="Fill-28" fill="#191A1C" mask="url(#mask-2)"></path>
                <path d="M726.440224,45.9450496 L735.378694,45.9450496 L735.378694,12.9755073 L726.440224,12.9755073 L726.440224,45.9450496 Z M726.440224,9.04284129 L735.378694,9.04284129 L735.378694,1.08803283 L726.440224,1.08803283 L726.440224,9.04284129 Z" id="Fill-29" fill="#191A1C" mask="url(#mask-2)"></path>
                <path d="M759.0398,19.206428 C756.461902,19.206428 754.477609,20.0990444 753.085456,21.8828456 C751.694036,23.6680784 750.998691,26.2142184 750.998691,29.5205497 C750.998691,32.8283127 751.694036,35.3787476 753.085456,37.1740017 C754.477609,38.9678243 756.461902,39.8647356 759.0398,39.8647356 C761.616966,39.8647356 763.596868,38.9678243 764.978042,37.1740017 C766.359215,35.3787476 767.050168,32.8283127 767.050168,29.5205497 C767.050168,26.2142184 766.359215,23.6680784 764.978042,21.8828456 C763.596868,20.0990444 761.616966,19.206428 759.0398,19.206428 M772.029566,17.1499028 C774.875355,20.6387659 776.297517,24.7618377 776.297517,29.5205497 C776.297517,34.3601484 774.875355,38.498968 772.029566,41.9370086 C769.183778,45.375765 764.864591,47.0944274 759.070542,47.0944274 C753.276493,47.0944274 748.957306,45.375765 746.111518,41.9370086 C743.265729,38.498968 741.843567,34.3601484 741.843567,29.5205497 C741.843567,24.7618377 743.265729,20.6387659 746.111518,17.1499028 C748.957306,13.6610396 753.276493,11.916608 759.070542,11.916608 C764.864591,11.916608 769.183778,13.6610396 772.029566,17.1499028" id="Fill-30" fill="#191A1C" mask="url(#mask-2)"></path>
                <path d="M798.473149,19.3581799 C795.483167,19.3581799 793.431535,20.5979647 792.318984,23.0782501 C791.741483,24.3889002 791.452366,26.0624664 791.452366,28.098949 L791.452366,45.9455506 L782.668336,45.9455506 L782.668336,13.0361365 L791.174228,13.0361365 L791.174228,17.8456711 C792.308005,16.1520621 793.3803,14.9316043 794.391111,14.1850133 C796.204862,12.8543205 798.50389,12.1886162 801.288196,12.1886162 C804.771505,12.1886162 807.623149,13.0812326 809.839468,14.8664654 C812.055787,16.6509825 813.163946,19.6101454 813.163946,23.7439544 L813.163946,45.9455506 L804.133252,45.9455506 L804.133252,25.8913876 C804.133252,24.1569774 803.896103,22.8270004 803.421805,21.8985934 C802.555918,20.2049844 800.906122,19.3581799 798.473149,19.3581799" id="Fill-31" fill="#191A1C" mask="url(#mask-2)"></path>
                <path d="M844.52537,14.4879445 C847.164751,16.1414681 848.680602,18.9846697 849.072191,23.0175493 L840.25742,23.0175493 C840.133721,21.9087579 839.813863,21.0318894 839.298576,20.385512 C838.329486,19.2165925 836.679689,18.6317749 834.350652,18.6317749 C832.432965,18.6317749 831.06643,18.9245416 830.251779,19.5093592 C829.43786,20.0941769 829.030169,20.7792081 829.030169,21.5658844 C829.030169,22.5544195 829.463478,23.2702306 830.329365,23.7133177 C831.195252,24.1771632 834.257695,24.973861 839.515231,26.102695 C843.019767,26.9094141 845.648901,28.129872 847.4019,29.762637 C849.134406,31.4161606 849.999561,33.4827072 849.999561,35.9629926 C849.999561,39.2299543 848.757456,41.8970664 846.273247,43.9643287 C843.788305,46.0301595 839.947808,47.0637907 834.751756,47.0637907 C829.452499,47.0637907 825.541004,45.9700314 823.014342,43.7825127 C820.488412,41.5942783 819.226545,38.80691 819.226545,35.4189762 L828.164282,35.4189762 C828.349463,36.9515277 828.752031,38.0402763 829.370522,38.6859379 C830.46331,39.8348147 832.484201,40.409611 835.432461,40.409611 C837.164235,40.409611 838.541017,40.1576455 839.562075,39.6537145 C840.582402,39.1490677 841.092565,38.3931712 841.092565,37.3845934 C841.092565,36.4175326 840.67975,35.680963 839.855584,35.177032 C839.030686,34.673101 835.968974,33.805538 830.669718,32.5757746 C826.854839,31.6487992 824.164222,30.4884695 822.597135,29.0969327 C821.030048,27.7261545 820.246871,25.7498002 820.246871,23.1693012 C820.246871,20.1242409 821.468481,17.5079515 823.911702,15.319717 C826.354923,13.1321984 829.792852,12.0377232 834.226954,12.0377232 C838.432689,12.0377232 841.865495,12.8544637 844.52537,14.4879445" id="Fill-32" fill="#191A1C" mask="url(#mask-2)"></path>
            </g>
        </g>
    </g>
</svg>