<?xml version="1.0" encoding="UTF-8"?>
<svg width="260px" height="260px" viewBox="0 0 260 260" version="1.1" xmlns="http://www.w3.org/2000/svg" xmlns:xlink="http://www.w3.org/1999/xlink">
    <title>g_text</title>
    <g id="Page-1" stroke="none" stroke-width="1" fill="none" fill-rule="evenodd">
        <path d="M138.09344,164.644565 L138.09344,112.332377 L260,112.332377 L260,219.526086 C236.659473,235.190734 216.026111,245.854851 198.085887,251.504622 C180.159689,257.168207 158.881096,260 134.264135,260 C103.966336,260 79.2652136,254.916587 60.1607682,244.735947 C41.0703496,234.569121 26.2580924,219.415578 15.7520501,199.28913 C5.24600777,179.162682 0,156.066305 0,130 C0,102.566146 5.73694432,78.6962066 17.2388865,58.4039953 C28.7268019,38.1117841 45.5589124,22.7095952 67.735218,12.1836149 C85.0442382,4.06120497 108.314631,0 137.57445,0 C165.782262,0 186.892533,2.52789289 200.877212,7.55605143 C214.86189,12.58421 226.476047,20.3889066 235.705654,30.9563277 C244.935261,41.5375624 251.86448,54.9505897 256.507337,71.1677824 L180.412171,84.5531824 C177.270177,75.0632239 171.968062,67.7972585 164.477773,62.7691 C156.987484,57.7409415 147.449288,55.2268622 135.835132,55.2268622 C118.526111,55.2268622 104.751834,61.1529062 94.4702201,72.9773669 C84.2026327,84.8156413 79.068839,103.5331 79.068839,129.143555 C79.068839,156.356391 84.2587397,175.792158 94.6385412,187.450855 C105.032369,199.109553 119.522011,204.952715 138.09344,204.952715 C146.916271,204.952715 155.332326,203.681862 163.341606,201.181596 C171.364912,198.667517 180.524385,194.37148 190.862106,188.3073 L190.862106,164.644565 L138.09344,164.644565 Z" id="g_text" fill="#191A1C"></path>
    </g>
</svg>